<?xml version="1.0" standalone="no"?>
<!DOCTYPE svg PUBLIC "-//W3C//DTD SVG 20010904//EN"
 "http://www.w3.org/TR/2001/REC-SVG-20010904/DTD/svg10.dtd">
<svg version="1.0" xmlns="http://www.w3.org/2000/svg"
 width="250.000000pt" height="250.000000pt" viewBox="0 0 250.000000 250.000000"
 preserveAspectRatio="xMidYMid meet">

<g transform="translate(0.000000,250.000000) scale(0.100000,-0.100000)"
fill="#000000" stroke="none">
<path d="M0 1250 l0 -1250 1250 0 1250 0 0 1250 0 1250 -1250 0 -1250 0 0
-1250z m890 1062 c-18 -15 -26 -45 -51 -189 -34 -201 -43 -231 -64 -213 -22
18 -18 -3 6 -34 17 -22 18 -25 3 -19 -11 4 -15 3 -11 -4 4 -6 0 -18 -8 -26
-13 -14 -12 -18 10 -35 14 -11 20 -22 14 -24 -6 -2 -15 -39 -20 -82 -4 -43
-11 -81 -13 -84 -3 -3 -12 1 -20 7 -10 8 -13 23 -9 47 3 20 1 34 -5 34 -5 0
-54 -9 -107 -20 -119 -25 -141 -25 -56 0 54 15 71 26 113 71 27 30 51 64 54
77 4 12 9 22 13 22 4 0 8 18 10 41 1 22 6 48 11 57 5 10 16 62 26 117 30 178
69 275 112 275 10 0 7 -6 -8 -18z m799 -85 c11 -34 29 -113 41 -176 11 -63 24
-119 29 -125 5 -6 11 -29 14 -51 8 -54 24 -123 26 -105 1 10 6 8 17 -8 38 -55
62 -71 127 -88 101 -25 73 -29 -37 -5 -53 12 -100 21 -106 21 -5 0 -10 -18
-10 -41 0 -22 -4 -38 -9 -35 -10 7 -23 96 -26 180 -1 32 -7 61 -13 65 -7 4 -8
12 -2 21 14 22 12 34 -3 21 -11 -9 -19 23 -41 171 -15 100 -34 195 -43 212
-15 28 -15 30 0 18 9 -8 25 -41 36 -75z m-395 1 c-22 -5 -58 -5 -80 0 -33 7
-27 8 41 8 69 0 74 -1 39 -8z m-36 -357 c-53 -8 -72 -20 -63 -43 5 -12 14 -14
38 -9 18 4 43 4 57 0 20 -5 15 -7 -21 -8 -25 -1 -48 -4 -52 -7 -3 -4 2 -23 13
-44 23 -44 56 -57 84 -32 18 15 18 14 -2 -14 -36 -52 -49 -59 -71 -40 -13 12
-27 15 -45 10 -36 -9 -18 -29 43 -49 l46 -15 -39 4 c-51 7 -85 30 -102 71 -23
55 -18 86 21 155 8 14 15 21 15 17 0 -4 8 -3 18 2 9 6 37 10 62 9 l45 -1 -47
-6z m72 -59 c0 -5 -7 -17 -15 -28 -14 -18 -14 -17 -4 9 12 27 19 34 19 19z
m34 -136 c-6 -15 -47 -46 -61 -46 -4 0 4 8 17 17 14 9 29 23 33 30 11 17 18
17 11 -1z m-877 -32 c-3 -3 -12 -4 -19 -1 -8 3 -5 6 6 6 11 1 17 -2 13 -5z
m783 -48 c0 -2 -13 -6 -30 -8 -16 -3 -30 -1 -30 4 0 4 14 8 30 8 17 0 30 -2
30 -4z m-775 -244 c-3 -3 -11 0 -18 7 -9 10 -8 11 6 5 10 -3 15 -9 12 -12z
m1531 3 c-11 -8 -24 -15 -28 -15 -5 0 -5 -6 -1 -14 17 -30 -3 -208 -32 -296
-34 -104 -128 -288 -160 -315 l-24 -20 32 -97 c18 -54 40 -105 49 -114 9 -9
65 -40 125 -70 108 -54 119 -69 27 -37 -64 21 -161 88 -178 122 -8 14 -22 53
-31 86 -26 90 -78 193 -132 259 -26 33 -52 61 -58 63 -5 2 -23 -17 -38 -42
-39 -61 -44 -57 -8 8 17 30 36 86 44 132 24 128 51 169 83 128 13 -17 14 -17
8 -1 -8 23 24 37 37 17 10 -14 6 -97 -6 -137 -6 -18 -4 -21 9 -16 9 3 16 12
16 19 0 8 5 17 11 21 8 4 9 -1 4 -16 -8 -25 -13 -49 -14 -66 -1 -6 -13 -29
-27 -50 -16 -24 -20 -33 -9 -24 24 20 65 109 65 142 0 39 17 44 25 7 4 -17 9
-28 12 -25 3 3 -4 33 -16 67 -14 37 -20 71 -16 86 3 15 0 34 -9 49 -11 15 -12
25 -5 30 6 3 14 15 18 26 5 13 34 28 95 49 48 16 100 36 114 44 35 18 42 18
18 0z m-1413 -40 c77 -26 77 -27 79 -63 l1 -37 4 33 c8 59 30 31 25 -31 -1
-10 3 -15 8 -12 13 8 13 -5 0 -25 -8 -13 -10 -13 -10 1 0 9 -6 19 -14 22 -9 4
-13 -3 -12 -23 1 -15 4 -26 9 -23 8 5 9 -6 7 -65 -1 -24 4 -49 10 -57 7 -8 12
-31 13 -51 1 -20 3 -31 5 -24 3 7 12 0 23 -17 11 -15 19 -21 19 -13 -1 8 -7
24 -15 34 -8 11 -15 29 -15 40 0 16 4 14 17 -12 21 -42 28 -35 9 9 -11 27 -12
45 -4 82 5 26 14 45 19 41 5 -3 9 2 9 10 0 22 23 20 45 -4 10 -11 21 -17 26
-15 4 3 11 0 15 -6 4 -8 3 -9 -4 -5 -7 4 -12 4 -12 -1 0 -15 19 -38 31 -38 6
0 19 -11 28 -25 12 -18 12 -22 2 -16 -12 8 -13 -1 -9 -51 6 -66 23 -104 70
-160 18 -21 26 -32 18 -25 -21 18 -32 15 -25 -8 3 -11 4 -20 1 -20 -2 0 -10
16 -16 36 -7 20 -26 56 -42 80 l-30 44 -44 -52 c-61 -74 -106 -165 -145 -293
-37 -125 -43 -135 -74 -135 -13 0 -68 -23 -124 -50 -110 -55 -181 -83 -181
-71 0 4 48 29 108 55 59 26 137 65 173 86 l65 39 30 105 c17 58 26 104 21 103
-5 -1 -14 7 -20 18 -7 11 -14 22 -17 25 -14 14 -109 202 -114 225 -1 6 -9 24
-18 40 -16 31 -24 76 -33 185 -3 36 -8 73 -11 82 -3 9 1 22 9 30 12 11 12 15
-2 26 -18 15 -24 17 92 -23z m671 -221 c9 -3 16 -14 16 -25 0 -26 -33 -41 -63
-30 -55 21 -91 -19 -39 -45 12 -6 31 -19 41 -28 15 -14 29 -16 61 -11 56 9 73
29 65 73 l-6 35 53 -7 c29 -4 57 -11 61 -15 11 -11 -52 -117 -79 -131 -16 -9
-31 -10 -51 -2 -38 13 -137 7 -189 -12 -65 -23 -88 -12 -134 60 -22 35 -40 67
-40 71 0 5 -7 21 -15 36 l-14 28 129 -2 c71 -2 133 0 136 4 9 9 47 9 68 1z
m483 -36 c-3 -8 -6 -5 -6 6 -1 11 2 17 5 13 3 -3 4 -12 1 -19z m-643 -217 c4
-5 -3 -7 -14 -4 -23 6 -26 13 -6 13 8 0 17 -4 20 -9z m151 -11 c-3 -5 -21 -10
-40 -10 -19 0 -37 5 -40 10 -4 6 12 10 40 10 28 0 44 -4 40 -10z m53 -97 c4
-30 -33 -53 -88 -53 -50 0 -90 22 -90 49 0 29 10 32 95 29 73 -3 80 -5 83 -25z
m-273 -71 c-2 -3 7 -24 20 -47 25 -42 33 -85 16 -85 -10 0 -42 64 -65 133 -21
63 -20 68 9 32 13 -16 22 -31 20 -33z"/>
<path d="M1161 1822 c-8 -15 -8 -23 0 -28 17 -10 33 11 21 32 -9 16 -10 16
-21 -4z"/>
<path d="M1177 1783 c-7 -11 50 -80 58 -71 9 9 -26 70 -42 75 -6 2 -13 0 -16
-4z"/>
<path d="M1148 1753 c-8 -29 9 -63 31 -63 33 0 35 21 4 52 -27 27 -31 28 -35
11z"/>
<path d="M1250 1685 c12 -15 30 -12 30 6 0 5 -10 9 -21 9 -18 0 -19 -2 -9 -15z"/>
<path d="M1790 1230 c0 -5 5 -10 11 -10 5 0 7 5 4 10 -3 6 -8 10 -11 10 -2 0
-4 -4 -4 -10z"/>
<path d="M678 1078 c-7 -105 -7 -112 3 -98 8 12 10 11 8 -5 -1 -11 0 -29 1
-40 3 -26 17 27 19 70 0 24 -2 27 -10 15 -7 -11 -9 -3 -7 33 2 26 0 47 -4 47
-5 0 -9 -10 -10 -22z"/>
<path d="M900 1051 c0 -5 5 -13 10 -16 6 -3 10 -2 10 4 0 5 -4 13 -10 16 -5 3
-10 2 -10 -4z"/>
</g>
</svg>
