<?xml version="1.0" standalone="no"?>
<!DOCTYPE svg PUBLIC "-//W3C//DTD SVG 20010904//EN"
 "http://www.w3.org/TR/2001/REC-SVG-20010904/DTD/svg10.dtd">
<svg version="1.0" xmlns="http://www.w3.org/2000/svg"
 width="250.000000pt" height="250.000000pt" viewBox="0 0 250.000000 250.000000"
 preserveAspectRatio="xMidYMid meet">

<g transform="translate(0.000000,250.000000) scale(0.100000,-0.100000)"
fill="#000000" stroke="none">
<path d="M120 1250 l0 -1130 1130 0 1130 0 0 754 0 753 -122 6 c-86 5 -196 21
-362 55 l-240 47 130 14 c71 7 196 21 277 32 145 18 150 18 205 0 32 -10 69
-21 85 -25 l27 -6 0 315 0 315 -1130 0 -1130 0 0 -1130z m1892 1068 c14 -11
152 -328 145 -334 -2 -2 -436 -44 -457 -44 -6 0 -3 11 5 24 9 14 15 30 14 38
-5 23 12 76 27 89 10 8 13 22 9 38 -5 22 0 31 24 49 25 18 30 28 27 58 -6 61
-22 69 -144 68 -121 -2 -118 2 13 15 145 14 319 13 337 -1z m-1556 -341 c2 -7
-5 -39 -16 -71 -11 -33 -20 -74 -20 -93 l0 -33 -57 1 c-32 1 -68 4 -79 7 l-22
7 29 85 c16 47 37 91 46 98 22 16 112 16 119 -1z m14 -401 c5 -13 17 -29 27
-35 14 -7 8 -8 -23 -4 -30 4 -45 1 -57 -12 -16 -15 -17 -15 -17 11 0 30 25 64
47 64 7 0 18 -11 23 -24z m1630 -32 c0 -25 -14 -32 -26 -13 -4 7 -22 9 -45 6
l-38 -5 32 33 c29 31 32 32 54 18 13 -9 23 -25 23 -39z m81 -9 c-2 -49 8 -74
76 -179 32 -50 43 -76 41 -99 -4 -43 -20 -43 -42 -2 -22 41 -46 46 -46 10 0
-35 -57 -45 -104 -17 -18 11 -39 17 -45 13 -17 -11 3 -58 28 -66 21 -6 27 -25
14 -39 -5 -4 -8 -13 -8 -19 0 -8 -18 -11 -55 -9 -78 5 -177 71 -107 72 12 1
33 7 47 15 25 14 25 14 3 15 -16 0 -29 12 -44 43 -12 23 -39 61 -60 85 -38 44
-41 65 -12 89 11 9 24 8 55 -3 51 -18 58 -17 33 3 -18 14 -18 15 -2 9 40 -13
95 -18 101 -8 8 13 83 -53 102 -90 9 -16 23 -28 34 -28 26 0 25 4 -10 90 -33
79 -36 106 -18 145 15 34 22 24 19 -30z m-1831 -11 c0 -12 -14 -57 -31 -99
-37 -94 -32 -127 12 -75 73 85 102 109 120 97 14 -8 31 -7 71 6 l53 16 -25
-20 c-20 -17 -21 -20 -5 -14 11 4 36 9 56 12 31 4 38 2 43 -15 9 -26 -6 -62
-39 -92 -15 -14 -36 -42 -46 -63 -11 -21 -30 -42 -42 -46 -22 -9 -21 -9 6 -20
16 -6 35 -11 43 -11 8 0 14 -6 14 -14 0 -18 -59 -55 -85 -55 -11 1 -38 -3 -59
-7 -34 -6 -38 -5 -33 9 3 9 2 19 -3 22 -17 10 -11 33 9 40 26 8 45 61 25 69
-8 3 -14 1 -14 -4 0 -14 -75 -33 -103 -26 -15 3 -27 15 -31 31 -9 35 -23 31
-43 -10 -20 -42 -37 -41 -41 3 -3 25 10 54 57 129 53 85 61 103 61 148 1 46 2
48 15 31 8 -11 15 -30 15 -42z m135 -4 c17 -7 16 -9 -10 -9 -17 -1 -36 -6 -43
-13 -7 -7 -12 -8 -12 -2 0 13 21 34 35 33 5 0 19 -4 30 -9z m1586 -12 c9 -19
9 -21 -2 -10 -7 6 -27 12 -43 12 -24 0 -27 3 -16 10 25 16 49 11 61 -12z
m-161 -497 c33 -41 89 -86 97 -78 2 3 0 21 -5 41 -10 34 -9 36 13 36 12 0 37
-3 54 -6 l31 -6 0 -94 c0 -51 -4 -96 -10 -99 -10 -6 -17 0 -124 119 -78 86
-127 155 -150 211 -25 60 -19 55 24 -18 22 -37 53 -85 70 -106z m-1236 107
c-32 -63 -78 -123 -163 -215 -86 -92 -110 -109 -112 -75 -2 34 3 167 6 171 2
2 25 6 50 9 l46 5 -7 -42 c-4 -24 -3 -41 3 -41 18 0 119 115 152 173 35 61 55
73 25 15z m-321 -41 c-6 -9 114 -3 182 9 28 5 29 5 10 -9 -27 -19 -109 -45
-169 -53 l-49 -7 6 31 c4 17 2 34 -3 37 -6 3 -10 18 -10 33 l0 27 19 -29 c11
-17 17 -34 14 -39z m1827 34 c0 -11 -4 -23 -10 -26 -5 -3 -7 -20 -3 -37 l6
-31 -50 7 c-68 9 -144 32 -168 51 -20 16 -20 16 0 11 30 -7 202 -17 188 -10
-10 4 -8 12 5 29 21 30 32 31 32 6z m-1504 -376 c14 -25 23 -52 20 -60 -7 -20
8 -19 24 1 24 28 48 35 70 22 11 -7 20 -20 20 -28 0 -8 7 -24 15 -34 8 -11 15
-37 15 -57 0 -32 -10 -50 -62 -111 -35 -41 -88 -106 -118 -146 -30 -39 -56
-70 -58 -68 -8 9 28 75 47 86 12 6 21 20 21 31 0 31 -40 183 -50 189 -4 3 0
22 10 43 10 20 16 37 14 37 -3 0 -1 8 5 17 6 11 6 24 -1 36 -6 13 -6 23 3 33
10 12 9 13 -4 9 -8 -4 -18 -1 -23 6 -4 7 -3 10 4 5 6 -3 13 -2 17 4 3 5 1 10
-4 10 -6 0 -11 5 -11 10 0 23 21 7 46 -35z m1178 -7 c-2 -18 -8 -34 -14 -36
-13 -5 -13 -32 1 -32 5 0 7 -4 4 -10 -3 -5 4 -27 15 -50 11 -22 16 -40 11 -40
-10 0 -61 -155 -61 -187 0 -11 11 -28 25 -37 14 -10 30 -29 36 -43 20 -52 2
-43 -49 25 -28 38 -82 105 -118 148 l-67 78 6 66 c3 36 11 79 18 95 7 17 11
34 10 38 -3 15 43 -16 91 -61 48 -45 57 -48 37 -11 -8 15 -5 27 11 54 28 45
50 46 44 3z"/>
</g>
</svg>
